<?xml version="1.0" encoding="UTF-8" standalone="no"?>
<svg
   version="1.1"
   width="256"
   height="256"
   viewBox="0 0 256 256"
   xml:space="preserve"
   id="svg4"
   sodipodi:docname="micro3.svg"
   inkscape:version="1.3 (0e150ed6c4, 2023-07-21)"
   xmlns:inkscape="http://www.inkscape.org/namespaces/inkscape"
   xmlns:sodipodi="http://sodipodi.sourceforge.net/DTD/sodipodi-0.dtd"
   xmlns="http://www.w3.org/2000/svg"
   xmlns:svg="http://www.w3.org/2000/svg"><sodipodi:namedview
   id="namedview4"
   pagecolor="#ffffff"
   bordercolor="#000000"
   borderopacity="0.25"
   inkscape:showpageshadow="2"
   inkscape:pageopacity="0.0"
   inkscape:pagecheckerboard="0"
   inkscape:deskcolor="#d1d1d1"
   inkscape:zoom="3.0742188"
   inkscape:cx="127.83736"
   inkscape:cy="128"
   inkscape:window-width="1920"
   inkscape:window-height="1001"
   inkscape:window-x="-9"
   inkscape:window-y="-9"
   inkscape:window-maximized="1"
   inkscape:current-layer="svg4" />&#10;&#10;<defs
   id="defs1">&#10;</defs>&#10;<g
   style="stroke:none;stroke-width:0;stroke-dasharray:none;stroke-linecap:butt;stroke-linejoin:miter;stroke-miterlimit:10;fill:#ffffff;fill-rule:nonzero;opacity:1"
   transform="translate(1.4065934065934016 1.4065934065934016) scale(2.81 2.81)"
   id="g4">&#10;	<path
   d="M 45 70.968 c -16.013 0 -29.042 -13.028 -29.042 -29.042 c 0 -1.712 1.388 -3.099 3.099 -3.099 c 1.712 0 3.099 1.388 3.099 3.099 C 22.157 54.522 32.404 64.77 45 64.77 c 12.595 0 22.843 -10.248 22.843 -22.843 c 0 -1.712 1.387 -3.099 3.099 -3.099 s 3.099 1.388 3.099 3.099 C 74.042 57.94 61.013 70.968 45 70.968 z"
   style="stroke:none;stroke-width:1;stroke-dasharray:none;stroke-linecap:butt;stroke-linejoin:miter;stroke-miterlimit:10;fill:#ffffff;fill-rule:nonzero;opacity:1"
   transform=" matrix(1 0 0 1 0 0) "
   stroke-linecap="round"
   id="path1" />&#10;	<path
   d="M 45 60.738 L 45 60.738 c -10.285 0 -18.7 -8.415 -18.7 -18.7 V 18.7 C 26.3 8.415 34.715 0 45 0 h 0 c 10.285 0 18.7 8.415 18.7 18.7 v 23.337 C 63.7 52.322 55.285 60.738 45 60.738 z"
   style="stroke:none;stroke-width:1;stroke-dasharray:none;stroke-linecap:butt;stroke-linejoin:miter;stroke-miterlimit:10;fill:#ffffff;fill-rule:nonzero;opacity:1"
   transform=" matrix(1 0 0 1 0 0) "
   stroke-linecap="round"
   id="path2" />&#10;	<path
   d="M 45 89.213 c -1.712 0 -3.099 -1.387 -3.099 -3.099 V 68.655 c 0 -1.712 1.388 -3.099 3.099 -3.099 c 1.712 0 3.099 1.387 3.099 3.099 v 17.459 C 48.099 87.826 46.712 89.213 45 89.213 z"
   style="stroke:none;stroke-width:1;stroke-dasharray:none;stroke-linecap:butt;stroke-linejoin:miter;stroke-miterlimit:10;fill:#ffffff;fill-rule:nonzero;opacity:1"
   transform=" matrix(1 0 0 1 0 0) "
   stroke-linecap="round"
   id="path3" />&#10;	<path
   d="M 55.451 90 H 34.549 c -1.712 0 -3.099 -1.387 -3.099 -3.099 s 1.388 -3.099 3.099 -3.099 h 20.901 c 1.712 0 3.099 1.387 3.099 3.099 S 57.163 90 55.451 90 z"
   style="stroke:none;stroke-width:1;stroke-dasharray:none;stroke-linecap:butt;stroke-linejoin:miter;stroke-miterlimit:10;fill:#ffffff;fill-rule:nonzero;opacity:1"
   transform=" matrix(1 0 0 1 0 0) "
   stroke-linecap="round"
   id="path4" />&#10;</g>&#10;</svg>
